# xmcd CD database file
#
# Track frame offsets:
#	150
#	9175
#	22032
#	30157
#	39370
#	49822
#	59062
#	65885
#	79300
#	89590
#	100517
#	111315
#	118355
#	130125
#	141042
#
# Disc length: 2042 seconds
#
# Revision: 5
# Processed by: cddbd v1.5.2PL0 Copyright (c) Steve Scherf et al.
# Submitted via: CDex 1.70beta2
#
DISCID=ce07f80f
DTITLE=Sinatra, Frank - Sinatra's Swingin' Session! And More
DYEAR=1961
DGENRE=Vocal
TTITLE0=When You're Smiling (The Whole World Smiles With You)
TTITLE1=Blue Moon
TTITLE2=S'posin'
TTITLE3=It All Depends On You
TTITLE4=It's Only A Paper Moon
TTITLE5=My Blue Heaven
TTITLE6=Should I
TTITLE7=September In The Rain
TTITLE8=Always
TTITLE9=I Can't Believe Yhat You're In Love With Me
TTITLE10=I Concentrate On You
TTITLE11=You Do Something To Me
TTITLE12=Sentimental Baby
TTITLE13=Hidden Persuasion
TTITLE14=Ol' Mac Donald
EXTD=YEAR: 1961
EXTT0=
EXTT1=
EXTT2=
EXTT3=
EXTT4=
EXTT5=
EXTT6=
EXTT7=
EXTT8=
EXTT9=
EXTT10=
EXTT11=
EXTT12=
EXTT13=
EXTT14=
PLAYORDER=
